<svg width="8" height="10" xmlns="http://www.w3.org/2000/svg">
 <metadata id="metadata86">image/svg+xmlimage/svg+xml</metadata>
 <defs>
  <style type="text/css">.fil0 {fill:#F8C300}
    .fil6 {fill:#3895BD}
    .fil3 {fill:#3941BF}
    .fil1 {fill:#8FB635}
    .fil4 {fill:#A02C35}
    .fil7 {fill:#BB3A84}
    .fil5 {fill:#D18C3B}
    .fil8 {fill:#72706F;fill-rule:nonzero}
    .fil9 {fill:#F8C300;fill-rule:nonzero}
    .fil2 {fill:white;fill-rule:nonzero}</style>
  <metadata id="CorelCorpID_0Corel-Layer"/>
 </defs>
 <g>
  <title>Layer 1</title>
  <g id="g4062">
   <path fill="#808080" fill-rule="nonzero" id="path2524" class="fil8" d="m0,0.293526l1.229321,-0.293526l0,5.915024c0,0.649048 0.192841,1.034775 0.580269,1.158836c-0.191196,0.360611 -0.514881,0.54171 -0.972721,0.54171c-0.556778,0 -0.836868,-0.387375 -0.836868,-1.160538l0,-6.161507z"/>
   <path fill="#f8c300" fill-rule="nonzero" id="path2526" class="fil9" d="m4.012451,7.384163l0,2.195267l-1.227562,0l0,-7.325424l1.227562,0l0,0.353889c0.308609,-0.300255 0.687618,-0.451195 1.135422,-0.451195c1.677055,0 2.515549,0.922409 2.515549,2.770515c0,0.862045 -0.2314,1.524475 -0.694283,1.990685c-0.464558,0.464561 -1.096779,0.69767 -1.900101,0.69767c-0.385738,0 -0.73793,-0.077141 -1.056587,-0.231407l0,0zm0,-3.842178l0,2.765488c0.223061,0.181099 0.48304,0.269981 0.781528,0.269981c0.566891,0 0.974361,-0.134109 1.220901,-0.404144c0.248241,-0.270035 0.370659,-0.69767 0.370659,-1.279579c0,-0.623924 -0.122417,-1.061607 -0.367271,-1.314865c-0.24654,-0.254906 -0.652378,-0.380653 -1.219269,-0.380653c-0.295158,0 -0.556767,0.114014 -0.786549,0.343773z"/>
  </g>
 </g>
</svg>
